<svg width="491" height="510" viewBox="0 0 491 510" fill="none" xmlns="http://www.w3.org/2000/svg">
<path fill-rule="evenodd" clip-rule="evenodd" d="M271.639 46.6695C333.505 45.0661 399.2 -25.4 449.223 11.0564C499.265 47.5275 462.154 129.701 469.897 191.159C475.723 237.41 497.785 280.485 488.93 326.252C479.248 376.293 457.298 424.798 418.339 457.637C377.688 491.901 324.677 512.908 271.639 509.408C220.276 506.018 182.237 466.083 138.355 439.161C89.6665 409.29 13.1146 399.413 1.24233 343.517C-10.8917 286.389 69.4389 251.279 86.5917 195.454C104.246 137.996 53.7851 57.7459 100.617 20.0917C146.715 -16.9727 212.521 48.2018 271.639 46.6695Z" fill="url(#paint0_linear)"/>
<defs>
<linearGradient id="paint0_linear" x1="96.633" y1="23.7067" x2="449.498" y2="528.465" gradientUnits="userSpaceOnUse">
<stop stop-color="#FC3366"/>
<stop offset="1" stop-color="#161C63"/>
</linearGradient>
</defs>
</svg>
